<?xml version="1.0" encoding="utf-8"?><!-- Uploaded to: SVG Repo, www.svgrepo.com, Generator: SVG Repo Mixer Tools -->
<svg version="1.1" fill="#000000" id="Uploaded to svgrepo.com" xmlns="http://www.w3.org/2000/svg" xmlns:xlink="http://www.w3.org/1999/xlink" 
	 width="800px" height="800px" viewBox="0 0 32 32" xml:space="preserve">
<style type="text/css">
	.feather_een{fill:#FF0000;}
	.st0{fill:#0B1719;}
</style>
<path class="feather_een" d="M31,15.5h-1.025C29.715,8.169,23.831,2.285,16.5,2.025V1c0-0.276-0.224-0.5-0.5-0.5S15.5,0.724,15.5,1
	v1.025C8.169,2.285,2.285,8.169,2.025,15.5H1c-0.276,0-0.5,0.224-0.5,0.5s0.224,0.5,0.5,0.5h1.025
	c0.26,7.331,6.144,13.215,13.475,13.475V31c0,0.276,0.224,0.5,0.5,0.5s0.5-0.224,0.5-0.5v-1.025
	c7.331-0.26,13.215-6.144,13.475-13.475H31c0.276,0,0.5-0.224,0.5-0.5S31.276,15.5,31,15.5z M16.5,28.975V28
	c0-0.276-0.224-0.5-0.5-0.5s-0.5,0.224-0.5,0.5v0.975C8.732,28.715,3.285,23.268,3.025,16.5H4c0.276,0,0.5-0.224,0.5-0.5
	S4.276,15.5,4,15.5H3.025C3.285,8.732,8.732,3.285,15.5,3.025V4c0,0.276,0.224,0.5,0.5,0.5s0.5-0.224,0.5-0.5V3.025
	C23.268,3.285,28.715,8.732,28.975,15.5H28c-0.276,0-0.5,0.224-0.5,0.5s0.224,0.5,0.5,0.5h0.975
	C28.715,23.268,23.268,28.715,16.5,28.975z M21,15.5h-1.05c-0.228-1.805-1.645-3.222-3.45-3.45V11c0-0.276-0.224-0.5-0.5-0.5
	s-0.5,0.224-0.5,0.5v1.05c-1.805,0.228-3.222,1.645-3.45,3.45H11c-0.276,0-0.5,0.224-0.5,0.5s0.224,0.5,0.5,0.5h1.05
	c0.228,1.805,1.645,3.222,3.45,3.45V21c0,0.276,0.224,0.5,0.5,0.5s0.5-0.224,0.5-0.5v-1.05c1.805-0.228,3.222-1.645,3.45-3.45H21
	c0.276,0,0.5-0.224,0.5-0.5S21.276,15.5,21,15.5z M18.949,15.5H16.5v-2.449C17.752,13.263,18.737,14.248,18.949,15.5z M15.5,13.051
	V15.5h-2.449C13.263,14.248,14.248,13.263,15.5,13.051z M13.051,16.5H15.5v2.449C14.248,18.737,13.263,17.752,13.051,16.5z
	 M16.5,18.949V16.5h2.449C18.737,17.752,17.752,18.737,16.5,18.949z"/>
</svg>